<svg xmlns="http://www.w3.org/2000/svg" width="491.437" height="509.349" viewBox="0 0 491.437 509.349">
  <path id="Path_3" data-name="Path 3" d="M848.885,98.57H618.654v90.815H745.313C741.97,248.306,691.855,284.147,622,284.147c-95.677,0-161.891-69.856-161.891-154.9,0-91.421,76.841-155.814,152.777-155.814,43.738,0,87.474,21.262,125.745,58.62l54.674-81.7c-47.991-46.774-115.725-75.932-179.2-76.539-140.023,0-254.224,115.417-254.224,255.435,0,139.713,113.594,253.913,257.867,253.913,127.569,0,233.569-89.6,233.569-243.284A390.728,390.728,0,0,0,848.885,98.57ZM714.933,156.48a23.049,23.049,0,0,0,19.155-26.374,23.05,23.05,0,0,0,26.375,19.157,23.049,23.049,0,0,0-19.157,26.372A23.048,23.048,0,0,0,714.933,156.48ZM793.925,263.6A40.4,40.4,0,0,0,747.7,230.03a40.4,40.4,0,0,0,33.573-46.222A40.4,40.4,0,0,0,827.5,217.383,40.4,40.4,0,0,0,793.925,263.6Zm23.48-79.2a27.218,27.218,0,0,0-31.14-22.62,27.213,27.213,0,0,0,22.618-31.14,27.217,27.217,0,0,0,31.14,22.62A27.216,27.216,0,0,0,817.4,184.407Zm-62.932-63.6a13.083,13.083,0,0,0,10.871-14.967,13.076,13.076,0,0,0,14.964,10.871,13.081,13.081,0,0,0-10.871,14.964A13.077,13.077,0,0,0,754.473,120.808Zm.044,163.236a11.6,11.6,0,0,0,9.643-13.271,11.6,11.6,0,0,0,13.274,9.64,11.6,11.6,0,0,0-9.642,13.274A11.6,11.6,0,0,0,754.517,284.043Z" transform="translate(-359.876 126.187)" fill="#fff"/>
</svg>
