<svg xmlns="http://www.w3.org/2000/svg" width="589.849" height="509.048" viewBox="0 0 589.849 509.048">
  <path id="Path_2" data-name="Path 2" d="M602.95-126.062,525.9,127.213,418.29-124.191h-1.871L308.492,127.526,231.135-126.062H122.276L286.035,382.985h5.614L416.108,109.746,542.436,382.985h5.927L712.124-126.062ZM273.744,257.623a21.421,21.421,0,0,1,34.8-16.73L278.437,271A21.33,21.33,0,0,1,273.744,257.623Zm21.424,21.426a21.336,21.336,0,0,1-13.6-4.872l30.156-30.155a21.425,21.425,0,0,1-16.554,35.027Zm222.775-17.4a21.422,21.422,0,0,1,34.8-16.729l-30.107,30.107A21.332,21.332,0,0,1,517.942,261.647Zm21.426,21.426a21.342,21.342,0,0,1-13.6-4.872l30.156-30.155a21.423,21.423,0,0,1-16.552,35.027ZM169.807-70.742a21.425,21.425,0,0,1,21.426-21.425,21.32,21.32,0,0,1,13.375,4.694L174.5-57.366A21.324,21.324,0,0,1,169.807-70.742Zm21.426,21.423a21.336,21.336,0,0,1-13.6-4.872l30.156-30.155a21.337,21.337,0,0,1,4.872,13.6A21.424,21.424,0,0,1,191.233-49.318Zm428.707-17.4a21.426,21.426,0,0,1,21.426-21.425,21.331,21.331,0,0,1,13.378,4.694L624.636-53.342A21.326,21.326,0,0,1,619.94-66.718Zm21.426,21.423a21.342,21.342,0,0,1-13.6-4.872l30.156-30.155a21.324,21.324,0,0,1,4.874,13.6A21.424,21.424,0,0,1,641.366-45.294Z" transform="translate(-122.276 126.062)" fill="#fff"/>
</svg>
